<?xml version="1.0" standalone="no"?>
<!DOCTYPE svg PUBLIC "-//W3C//DTD SVG 20010904//EN"
 "http://www.w3.org/TR/2001/REC-SVG-20010904/DTD/svg10.dtd">
<svg version="1.0" xmlns="http://www.w3.org/2000/svg"
 width="37.000000pt" height="37.000000pt" viewBox="0 0 64.000000 64.000000"
 preserveAspectRatio="xMidYMid meet">

<g transform="translate(0.000000,64.000000) scale(0.100000,-0.100000)"
fill="#000000" stroke="none">
<path d="M30 320 l0 -290 290 0 290 0 0 290 0 290 -290 0 -290 0 0 -290z m430
55 l55 -55 -58 -57 c-53 -54 -58 -57 -74 -40 -16 16 -16 18 7 42 l23 25 -130
0 c-104 0 -133 3 -143 15 -10 12 -10 18 0 30 10 12 39 15 143 15 l130 0 -23
25 c-19 20 -21 27 -10 40 7 8 15 15 19 15 4 0 31 -25 61 -55z"/>
</g>
</svg>
