<svg width="32" height="32" viewBox="0 0 32 32" fill="none" xmlns="http://www.w3.org/2000/svg">
<path d="M23.5 7.42857H25.6429M9.57143 1H22.4286C27.1624 1 31 4.83756 31 9.57143V22.4286C31 27.1624 27.1624 31 22.4286 31H9.57143C4.83756 31 1 27.1624 1 22.4286V9.57143C1 4.83756 4.83756 1 9.57143 1ZM16 22.4286C12.4496 22.4286 9.57143 19.5504 9.57143 16C9.57143 12.4496 12.4496 9.57143 16 9.57143C19.5504 9.57143 22.4286 12.4496 22.4286 16C22.4286 19.5504 19.5504 22.4286 16 22.4286Z" stroke="white"/>
</svg>
